<?xml version="1.0" encoding="UTF-8" standalone="no"?>
<svg
   xmlns:dc="http://purl.org/dc/elements/1.1/"
   xmlns:cc="http://creativecommons.org/ns#"
   xmlns:rdf="http://www.w3.org/1999/02/22-rdf-syntax-ns#"
   xmlns:svg="http://www.w3.org/2000/svg"
   xmlns="http://www.w3.org/2000/svg"
   xmlns:sodipodi="http://sodipodi.sourceforge.net/DTD/sodipodi-0.dtd"
   xmlns:inkscape="http://www.inkscape.org/namespaces/inkscape"
   height="1039.015"
   width="912.0589"
   fill="#ffffff"
   version="1.1"
   x="0px"
   y="0px"
   viewBox="0 0 912.0589 1039.015"
   xml:space="preserve"
   id="svg22"
   sodipodi:docname="noun_Robot_1955251.svg"
   inkscape:version="1.0.1 (0767f8302a, 2020-10-17)"><metadata
     id="metadata28"><rdf:RDF><cc:Work
         rdf:about=""><dc:format>image/svg+xml</dc:format><dc:type
           rdf:resource="http://purl.org/dc/dcmitype/StillImage" /><dc:title /></cc:Work></rdf:RDF></metadata><defs
     id="defs26" /><sodipodi:namedview
     pagecolor="#ffffff"
     bordercolor="#666666"
     borderopacity="1"
     objecttolerance="10"
     gridtolerance="10"
     guidetolerance="10"
     inkscape:pageopacity="0"
     inkscape:pageshadow="2"
     inkscape:window-width="1920"
     inkscape:window-height="948"
     id="namedview24"
     showgrid="false"
     fit-margin-top="0"
     fit-margin-left="0"
     fit-margin-right="0"
     fit-margin-bottom="0"
     inkscape:zoom="0.70887455"
     inkscape:cx="227.98682"
     inkscape:cy="502.69081"
     inkscape:window-x="0"
     inkscape:window-y="27"
     inkscape:window-maximized="1"
     inkscape:current-layer="svg22"
     inkscape:document-rotation="0" /><g
     id="g863"
     transform="matrix(2.2232385,0,0,2.2232385,-25.826657,-17.794284)"
     style="fill:none;fill-opacity:1;stroke:#ffffff;stroke-opacity:1"><path
       d="m 15.239258,380.06013 c 0,3.19195 2.587991,5.77993 5.779941,5.77993 3.191949,0 5.779941,-2.58798 5.779941,-5.77993 0,-11.03212 8.977533,-20.00965 20.009657,-20.00965 11.032122,0 20.006834,8.97753 20.006834,20.00965 0,3.19195 2.587992,5.77993 5.779941,5.77993 3.19195,0 5.779941,-2.58798 5.779941,-5.77993 0,-15.43094 -11.136193,-28.28904 -25.786775,-31.01498 v -14.05331 h 17.633334 c 3.191949,0 5.779939,-2.58799 5.779939,-5.77994 V 215.67896 h 22.236404 v 146.17492 c 0,3.19195 2.587985,5.77994 5.779945,5.77994 h 27.51398 v 27.68614 c 0,0.0211 0.0117,0.0384 0.0121,0.0593 h -7.81265 c -21.23451,0 -38.509421,17.27491 -38.509421,38.50943 0,21.23168 17.274911,38.50659 38.509421,38.50659 h 184.80006 c 0.0727,0 0.14328,-0.0115 0.2159,-0.0115 0.0727,3.4e-4 0.1429,0.0115 0.21589,0.0115 20.99462,0 38.0748,-17.08018 38.0748,-38.07762 0,-0.0731 -0.0115,-0.14328 -0.0115,-0.2159 3.6e-4,-0.0727 0.0115,-0.14329 0.0115,-0.21591 0,-21.23168 -17.27491,-38.50659 -38.50659,-38.50659 h -7.81266 c 3.6e-4,-0.0209 0.0115,-0.0382 0.0115,-0.0593 v -27.68614 h 27.42649 c 3.19196,0 5.77994,-2.58799 5.77994,-5.77994 V 215.67896 h 24.03136 v 111.93272 c 0,3.19195 2.58799,5.77994 5.77994,5.77994 h 17.63615 v 14.05616 c -14.65305,2.72592 -25.78959,15.58333 -25.78959,31.01215 0,3.19195 2.58799,5.77994 5.77994,5.77994 3.19195,0 5.77994,-2.58799 5.77994,-5.77994 0,-11.03214 8.97753,-20.00685 20.00965,-20.00685 11.03212,0 20.00685,8.97471 20.00685,20.00685 0,3.19195 2.58798,5.77994 5.77994,5.77994 3.19193,0 5.77994,-2.58799 5.77994,-5.77994 0,-15.42846 -11.1362,-28.28623 -25.78679,-31.01215 v -14.05616 h 18.92027 c 3.19196,0 5.77994,-2.58799 5.77994,-5.77994 v -99.35119 c 0,-22.04448 -17.93248,-39.97699 -39.97696,-39.97699 h -13.91928 c -3.19195,0 -5.77994,2.58801 -5.77994,5.77996 v 10.05563 h -24.03136 v -8.45825 c 0,-3.19196 -2.58798,-5.77994 -5.77994,-5.77994 H 252.0503 v -24.30511 h 58.78156 c 3.19195,0 5.77994,-2.58799 5.77994,-5.77994 V 15.779941 C 316.6118,12.587991 314.02381,10 310.83186,10 h -189.4003 c -3.19195,0 -5.77995,2.587991 -5.77995,5.779941 V 159.79585 c 0,3.19195 2.588,5.77994 5.77995,5.77994 h 59.57177 v 24.30511 h -76.98497 c -3.19196,0 -5.779945,2.58798 -5.779945,5.77994 v 8.45825 H 76.002011 v -8.45825 c 0,-3.19196 -2.58799,-5.77994 -5.779939,-5.77994 H 56.3028 c -22.044489,0 -39.976982,17.9353 -39.976982,39.9798 v 99.3512 c 0,3.19195 2.587992,5.77994 5.779941,5.77994 h 18.923097 v 14.05331 c -14.653054,2.72594 -25.789598,15.5837 -25.789598,31.01498 z M 369.52873,199.8434 h 8.13934 c 15.66905,0 28.41709,12.74804 28.41709,28.41709 v 93.57125 h -36.55643 z m -60.78109,260.97008 c -14.52077,-0.1195 -26.30183,-11.94793 -26.30183,-26.49585 0,-14.61919 11.89572,-26.51491 26.51771,-26.51491 14.54583,0 26.37488,11.78213 26.4934,26.30043 -0.11777,14.68444 -12.02518,26.59181 -26.70928,26.71033 z m -37.86173,-26.49585 c 0,10.30716 4.1314,19.65547 10.80564,26.51774 H 151.30317 c 6.67388,-6.86227 10.80528,-16.21058 10.80528,-26.51774 0,-10.74708 -4.49406,-20.44886 -11.67947,-27.37852 h 132.13677 c -7.18577,6.92966 -11.67984,16.63144 -11.67984,27.37852 z m -173.369989,0 c 0,-14.61919 11.895729,-26.51491 26.517739,-26.51491 14.61918,0 26.51491,11.89572 26.51491,26.51491 0,14.62201 -11.89573,26.51774 -26.51491,26.51774 -14.62201,0 -26.517739,-11.89573 -26.517739,-26.51774 z M 289.18319,395.37923 H 143.08023 c 3.5e-4,-0.0209 0.0121,-0.0382 0.0121,-0.0593 V 367.63379 H 289.1713 v 27.68614 c 0,0.0211 0.0115,0.0384 0.0115,0.0593 z M 109.79829,356.07394 V 285.2358 h 212.57933 v 70.83814 z M 127.2115,21.559882 H 305.05192 V 154.01591 H 127.2115 Z m 65.35171,144.015908 h 47.92721 v 24.30511 h -47.92721 z m 129.81441,35.86499 v 72.23514 H 109.79829 V 201.44078 Z M 27.8857,229.8607 c 0,-15.67189 12.748043,-28.41992 28.4171,-28.41992 h 8.139331 V 323.43196 H 27.8857 Z"
       id="path2"
       style="fill:none;fill-opacity:1;fill-rule:nonzero;stroke-width:5.77994;stroke:#ffffff;stroke-opacity:1" /><path
       d="m 137.31228,303.43359 c -3.19195,0 -5.77994,2.58798 -5.77994,5.77994 v 26.34276 c 0,3.19193 2.58799,5.77994 5.77994,5.77994 3.19195,0 5.77994,-2.58801 5.77994,-5.77994 v -26.34276 c 0,-3.19196 -2.58799,-5.77994 -5.77994,-5.77994 z"
       id="path4"
       style="fill:none;fill-opacity:1;fill-rule:nonzero;stroke-width:5.77994;stroke:#ffffff;stroke-opacity:1" /><path
       d="m 168.83949,303.43359 c -3.19196,0 -5.77995,2.58798 -5.77995,5.77994 v 26.34276 c 0,3.19193 2.58799,5.77994 5.77995,5.77994 3.19195,0 5.77993,-2.58801 5.77993,-5.77994 v -26.34276 c 0,-3.19196 -2.58798,-5.77994 -5.77993,-5.77994 z"
       id="path6"
       style="fill:none;fill-opacity:1;fill-rule:nonzero;stroke-width:5.77994;stroke:#ffffff;stroke-opacity:1" /><path
       d="m 200.3667,303.43359 c -3.19195,0 -5.77996,2.58798 -5.77996,5.77994 v 26.34276 c 0,3.19193 2.58801,5.77994 5.77996,5.77994 3.19193,0 5.77994,-2.58801 5.77994,-5.77994 v -26.34276 c 0,-3.19196 -2.58801,-5.77994 -5.77994,-5.77994 z"
       id="path8"
       style="fill:none;fill-opacity:1;fill-rule:nonzero;stroke-width:5.77994;stroke:#ffffff;stroke-opacity:1" /><path
       d="m 231.89389,303.43359 c -3.19195,0 -5.77994,2.58798 -5.77994,5.77994 v 26.34276 c 0,3.19193 2.58799,5.77994 5.77994,5.77994 3.19196,0 5.77994,-2.58801 5.77994,-5.77994 v -26.34276 c 0,-3.19196 -2.58798,-5.77994 -5.77994,-5.77994 z"
       id="path10"
       style="fill:none;fill-opacity:1;fill-rule:nonzero;stroke-width:5.77994;stroke:#ffffff;stroke-opacity:1" /><path
       d="m 263.42393,303.43359 c -3.19196,0 -5.77994,2.58798 -5.77994,5.77994 v 26.34276 c 0,3.19193 2.58798,5.77994 5.77994,5.77994 3.19195,0 5.77994,-2.58801 5.77994,-5.77994 v -26.34276 c 0,-3.19196 -2.58799,-5.77994 -5.77994,-5.77994 z"
       id="path12"
       style="fill:none;fill-opacity:1;fill-rule:nonzero;stroke-width:5.77994;stroke:#ffffff;stroke-opacity:1" /><path
       d="m 294.95112,303.43359 c -3.19193,0 -5.77994,2.58798 -5.77994,5.77994 v 26.34276 c 0,3.19193 2.58801,5.77994 5.77994,5.77994 3.19195,0 5.77994,-2.58801 5.77994,-5.77994 v -26.34276 c 0,-3.19196 -2.58799,-5.77994 -5.77994,-5.77994 z"
       id="path14"
       style="fill:none;fill-opacity:1;fill-rule:nonzero;stroke-width:5.77994;stroke:#ffffff;stroke-opacity:1" /><path
       d="m 246.27036,122.84431 h -61.70255 c -3.19196,0 -5.77994,2.58799 -5.77994,5.77994 0,3.19195 2.58798,5.77994 5.77994,5.77994 h 61.70255 c 3.19196,0 5.77994,-2.58799 5.77994,-5.77994 0,-3.19195 -2.58798,-5.77994 -5.77994,-5.77994 z"
       id="path16"
       style="fill:none;fill-opacity:1;fill-rule:nonzero;stroke-width:5.77994;stroke:#ffffff;stroke-opacity:1" /><path
       d="m 203.72233,79.808022 c 0,-13.524158 -11.00108,-24.525235 -24.52524,-24.525235 -13.52416,0 -24.52805,11.001077 -24.52805,24.525235 0,13.524158 11.0039,24.528058 24.52805,24.528058 13.52416,0 24.52524,-11.0039 24.52524,-24.528058 z m -37.49341,0 c 0,-7.148724 5.81663,-12.965356 12.96817,-12.965356 7.14873,0 12.96536,5.816632 12.96536,12.965356 0,7.151548 -5.81663,12.968177 -12.96536,12.968177 -7.15154,2e-6 -12.96817,-5.816629 -12.96817,-12.968177 z"
       id="path18"
       style="fill:none;fill-opacity:1;fill-rule:nonzero;stroke-width:5.77994;stroke:#ffffff;stroke-opacity:1" /><path
       d="m 258.6346,55.282787 c -13.52416,0 -24.52524,11.001079 -24.52524,24.525237 0,13.524158 11.00108,24.528056 24.52524,24.528056 13.52415,0 24.52522,-11.0039 24.52522,-24.528056 0,-13.524158 -11.00107,-24.525237 -24.52522,-24.525237 z m 0,37.493414 c -7.14873,0 -12.96537,-5.816631 -12.96537,-12.968177 0,-7.148726 5.81664,-12.965356 12.96537,-12.965356 7.14871,0 12.96534,5.81663 12.96534,12.965356 0,7.151546 -5.81663,12.968177 -12.96534,12.968177 z"
       id="path20"
       style="fill:none;fill-opacity:1;fill-rule:nonzero;stroke-width:5.77994;stroke:#ffffff;stroke-opacity:1" /></g></svg>
